<svg id="visual" viewBox="0 0 960 540" width="960" height="540" xmlns="http://www.w3.org/2000/svg" xmlns:xlink="http://www.w3.org/1999/xlink" version="1.1"><g stroke-width="1" stroke-linejoin="bevel"><path d="M461.1 270L450.1 353.5L489.9 332.5Z" fill="#297ea6" stroke="#297ea6"></path><path d="M461.1 270L391.2 300L450.1 353.5Z" fill="#297ea6" stroke="#297ea6"></path><path d="M421.1 449.5L474.1 378L450.1 353.5Z" fill="#112e42" stroke="#112e42"></path><path d="M450.1 353.5L474.1 378L489.9 332.5Z" fill="#00101c" stroke="#00101c"></path><path d="M474.1 378L513.9 372L489.9 332.5Z" fill="#112e42" stroke="#112e42"></path><path d="M489.9 332.5L556.9 238L461.1 270Z" fill="#205a7a" stroke="#205a7a"></path><path d="M461.1 270L406.2 226.5L391.2 300Z" fill="#1d4e6b" stroke="#1d4e6b"></path><path d="M316.4 330.5L366.2 364.5L391.2 300Z" fill="#19435d" stroke="#19435d"></path><path d="M391.2 300L366.2 364.5L450.1 353.5Z" fill="#00101c" stroke="#00101c"></path><path d="M481.9 184.5L431.1 187.5L461.1 270Z" fill="#081a28" stroke="#081a28"></path><path d="M461.1 270L431.1 187.5L406.2 226.5Z" fill="#112e42" stroke="#112e42"></path><path d="M603.8 310L556.9 238L489.9 332.5Z" fill="#081a28" stroke="#081a28"></path><path d="M556.9 238L481.9 184.5L461.1 270Z" fill="#15384f" stroke="#15384f"></path><path d="M307.4 228.5L391.2 300L406.2 226.5Z" fill="#0c2435" stroke="#0c2435"></path><path d="M307.4 228.5L316.4 330.5L391.2 300Z" fill="#112e42" stroke="#112e42"></path><path d="M392.2 464.5L421.1 449.5L366.2 364.5Z" fill="#0c2435" stroke="#0c2435"></path><path d="M366.2 364.5L421.1 449.5L450.1 353.5Z" fill="#205a7a" stroke="#205a7a"></path><path d="M474.1 378L538.9 438.5L513.9 372Z" fill="#1d4e6b" stroke="#1d4e6b"></path><path d="M606.8 374.5L603.8 310L513.9 372Z" fill="#0c2435" stroke="#0c2435"></path><path d="M513.9 372L603.8 310L489.9 332.5Z" fill="#15384f" stroke="#15384f"></path><path d="M421.1 449.5L538.9 438.5L474.1 378Z" fill="#081a28" stroke="#081a28"></path><path d="M333.2 431L392.2 464.5L366.2 364.5Z" fill="#15384f" stroke="#15384f"></path><path d="M421.1 449.5L523.9 540L538.9 438.5Z" fill="#246688" stroke="#246688"></path><path d="M538.9 438.5L606.8 374.5L513.9 372Z" fill="#15384f" stroke="#15384f"></path><path d="M372.2 139L307.4 228.5L406.2 226.5Z" fill="#277297" stroke="#277297"></path><path d="M321.4 424L333.2 431L366.2 364.5Z" fill="#0c2435" stroke="#0c2435"></path><path d="M316.4 330.5L321.4 424L366.2 364.5Z" fill="#19435d" stroke="#19435d"></path><path d="M307.4 460.5L321.4 424L262.5 406Z" fill="#277297" stroke="#277297"></path><path d="M674.6 411L626.8 363L606.8 374.5Z" fill="#246688" stroke="#246688"></path><path d="M606.8 374.5L626.8 363L603.8 310Z" fill="#112e42" stroke="#112e42"></path><path d="M645.6 339.5L620.8 236.5L603.8 310Z" fill="#0c2435" stroke="#0c2435"></path><path d="M603.8 310L620.8 236.5L556.9 238Z" fill="#297ea6" stroke="#297ea6"></path><path d="M556.9 238L562.8 164L481.9 184.5Z" fill="#1d4e6b" stroke="#1d4e6b"></path><path d="M620.8 236.5L562.8 164L556.9 238Z" fill="#081a28" stroke="#081a28"></path><path d="M402.2 105.5L372.2 139L431.1 187.5Z" fill="#112e42" stroke="#112e42"></path><path d="M447.1 114L431.1 187.5L481.9 184.5Z" fill="#246688" stroke="#246688"></path><path d="M431.1 187.5L372.2 139L406.2 226.5Z" fill="#297ea6" stroke="#297ea6"></path><path d="M626.8 363L645.6 339.5L603.8 310Z" fill="#297ea6" stroke="#297ea6"></path><path d="M645.6 339.5L630.6 229L620.8 236.5Z" fill="#19435d" stroke="#19435d"></path><path d="M620.8 236.5L630.6 229L562.8 164Z" fill="#277297" stroke="#277297"></path><path d="M503.9 96.5L447.1 114L481.9 184.5Z" fill="#297ea6" stroke="#297ea6"></path><path d="M503.9 96.5L448.1 104.5L447.1 114Z" fill="#0c2435" stroke="#0c2435"></path><path d="M447.1 114L402.2 105.5L431.1 187.5Z" fill="#246688" stroke="#246688"></path><path d="M262.5 406L321.4 424L316.4 330.5Z" fill="#205a7a" stroke="#205a7a"></path><path d="M321.4 424L307.4 460.5L333.2 431Z" fill="#00101c" stroke="#00101c"></path><path d="M333.2 431L307.4 460.5L392.2 464.5Z" fill="#246688" stroke="#246688"></path><path d="M563.8 540L605.8 454.5L538.9 438.5Z" fill="#15384f" stroke="#15384f"></path><path d="M538.9 438.5L605.8 454.5L606.8 374.5Z" fill="#112e42" stroke="#112e42"></path><path d="M626.8 363L674.6 411L645.6 339.5Z" fill="#246688" stroke="#246688"></path><path d="M274.4 103L258.4 229L307.4 228.5Z" fill="#0c2435" stroke="#0c2435"></path><path d="M307.4 228.5L258.4 229L316.4 330.5Z" fill="#0c2435" stroke="#0c2435"></path><path d="M448.1 104.5L402.2 105.5L447.1 114Z" fill="#081a28" stroke="#081a28"></path><path d="M372.2 139L274.4 103L307.4 228.5Z" fill="#112e42" stroke="#112e42"></path><path d="M189.5 345.5L262.5 406L316.4 330.5Z" fill="#081a28" stroke="#081a28"></path><path d="M605.8 454.5L622.6 452.5L606.8 374.5Z" fill="#15384f" stroke="#15384f"></path><path d="M553.9 98L503.9 96.5L562.8 164Z" fill="#277297" stroke="#277297"></path><path d="M562.8 164L503.9 96.5L481.9 184.5Z" fill="#15384f" stroke="#15384f"></path><path d="M333.2 0L331.4 68.5L402.2 105.5Z" fill="#19435d" stroke="#19435d"></path><path d="M404.2 540L441.1 540L392.2 464.5Z" fill="#0c2435" stroke="#0c2435"></path><path d="M392.2 464.5L441.1 540L421.1 449.5Z" fill="#277297" stroke="#277297"></path><path d="M605.8 454.5L668.6 540L622.6 452.5Z" fill="#081a28" stroke="#081a28"></path><path d="M311.4 540L404.2 540L392.2 464.5Z" fill="#277297" stroke="#277297"></path><path d="M649.6 109L553.9 98L562.8 164Z" fill="#246688" stroke="#246688"></path><path d="M441.1 540L523.9 540L421.1 449.5Z" fill="#297ea6" stroke="#297ea6"></path><path d="M622.6 452.5L674.6 411L606.8 374.5Z" fill="#081a28" stroke="#081a28"></path><path d="M721.5 306.5L681.6 217.5L630.6 229Z" fill="#112e42" stroke="#112e42"></path><path d="M712.5 423L674.6 411L702.5 500.5Z" fill="#0c2435" stroke="#0c2435"></path><path d="M721.5 306.5L630.6 229L645.6 339.5Z" fill="#00101c" stroke="#00101c"></path><path d="M630.6 229L649.6 109L562.8 164Z" fill="#00101c" stroke="#00101c"></path><path d="M523.9 540L563.8 540L538.9 438.5Z" fill="#277297" stroke="#277297"></path><path d="M178.5 280L189.5 345.5L316.4 330.5Z" fill="#246688" stroke="#246688"></path><path d="M236.5 540L311.4 540L307.4 460.5Z" fill="#1d4e6b" stroke="#1d4e6b"></path><path d="M674.6 411L721.5 306.5L645.6 339.5Z" fill="#081a28" stroke="#081a28"></path><path d="M182.5 445.5L307.4 460.5L262.5 406Z" fill="#205a7a" stroke="#205a7a"></path><path d="M307.4 460.5L311.4 540L392.2 464.5Z" fill="#1d4e6b" stroke="#1d4e6b"></path><path d="M481.1 0L448.1 104.5L503.9 96.5Z" fill="#081a28" stroke="#081a28"></path><path d="M481.1 0L402.2 105.5L448.1 104.5Z" fill="#297ea6" stroke="#297ea6"></path><path d="M402.2 105.5L331.4 68.5L372.2 139Z" fill="#19435d" stroke="#19435d"></path><path d="M258.4 229L178.5 280L316.4 330.5Z" fill="#19435d" stroke="#19435d"></path><path d="M331.4 68.5L274.4 103L372.2 139Z" fill="#00101c" stroke="#00101c"></path><path d="M144.7 195.5L178.5 280L258.4 229Z" fill="#19435d" stroke="#19435d"></path><path d="M673.6 108.5L649.6 109L681.6 217.5Z" fill="#1d4e6b" stroke="#1d4e6b"></path><path d="M681.6 217.5L649.6 109L630.6 229Z" fill="#1d4e6b" stroke="#1d4e6b"></path><path d="M553.9 98L568.8 24.5L503.9 96.5Z" fill="#112e42" stroke="#112e42"></path><path d="M702.5 500.5L674.6 411L622.6 452.5Z" fill="#205a7a" stroke="#205a7a"></path><path d="M674.6 411L712.5 423L721.5 306.5Z" fill="#205a7a" stroke="#205a7a"></path><path d="M274.4 103L205.5 160.5L258.4 229Z" fill="#277297" stroke="#277297"></path><path d="M704.5 99L673.6 108.5L681.6 217.5Z" fill="#1d4e6b" stroke="#1d4e6b"></path><path d="M649.6 109L568.8 24.5L553.9 98Z" fill="#19435d" stroke="#19435d"></path><path d="M140.7 403L182.5 445.5L189.5 345.5Z" fill="#246688" stroke="#246688"></path><path d="M189.5 345.5L182.5 445.5L262.5 406Z" fill="#205a7a" stroke="#205a7a"></path><path d="M642.6 0L568.8 24.5L649.6 109Z" fill="#00101c" stroke="#00101c"></path><path d="M540.9 0L481.1 0L503.9 96.5Z" fill="#1d4e6b" stroke="#1d4e6b"></path><path d="M668.6 540L702.5 500.5L622.6 452.5Z" fill="#205a7a" stroke="#205a7a"></path><path d="M563.8 540L668.6 540L605.8 454.5Z" fill="#112e42" stroke="#112e42"></path><path d="M182.5 445.5L236.5 540L307.4 460.5Z" fill="#19435d" stroke="#19435d"></path><path d="M259.5 35.5L179.5 146L274.4 103Z" fill="#1d4e6b" stroke="#1d4e6b"></path><path d="M274.4 103L179.5 146L205.5 160.5Z" fill="#00101c" stroke="#00101c"></path><path d="M144.7 195.5L132.7 245L178.5 280Z" fill="#205a7a" stroke="#205a7a"></path><path d="M551.8 0L540.9 0L568.8 24.5Z" fill="#19435d" stroke="#19435d"></path><path d="M568.8 24.5L540.9 0L503.9 96.5Z" fill="#0c2435" stroke="#0c2435"></path><path d="M853.3 299L769.5 235L721.5 306.5Z" fill="#00101c" stroke="#00101c"></path><path d="M721.5 306.5L769.5 235L681.6 217.5Z" fill="#277297" stroke="#277297"></path><path d="M809.3 406L721.5 306.5L712.5 423Z" fill="#15384f" stroke="#15384f"></path><path d="M120.7 364.5L140.7 403L189.5 345.5Z" fill="#19435d" stroke="#19435d"></path><path d="M182.5 445.5L145.7 472.5L236.5 540Z" fill="#15384f" stroke="#15384f"></path><path d="M120.7 364.5L189.5 345.5L96.8 324.5Z" fill="#19435d" stroke="#19435d"></path><path d="M642.6 0L551.8 0L568.8 24.5Z" fill="#0c2435" stroke="#0c2435"></path><path d="M144.7 195.5L258.4 229L205.5 160.5Z" fill="#081a28" stroke="#081a28"></path><path d="M767.5 173.5L704.5 99L681.6 217.5Z" fill="#112e42" stroke="#112e42"></path><path d="M673.6 108.5L642.6 0L649.6 109Z" fill="#205a7a" stroke="#205a7a"></path><path d="M158.7 160L144.7 195.5L205.5 160.5Z" fill="#081a28" stroke="#081a28"></path><path d="M179.5 146L158.7 160L205.5 160.5Z" fill="#081a28" stroke="#081a28"></path><path d="M481.1 0L333.2 0L402.2 105.5Z" fill="#15384f" stroke="#15384f"></path><path d="M331.4 68.5L259.5 35.5L274.4 103Z" fill="#0c2435" stroke="#0c2435"></path><path d="M120.7 89.5L87.8 167L158.7 160Z" fill="#112e42" stroke="#112e42"></path><path d="M96.8 324.5L189.5 345.5L178.5 280Z" fill="#246688" stroke="#246688"></path><path d="M284.4 0L259.5 35.5L331.4 68.5Z" fill="#1d4e6b" stroke="#1d4e6b"></path><path d="M769.5 235L767.5 173.5L681.6 217.5Z" fill="#0c2435" stroke="#0c2435"></path><path d="M140.7 403L145.7 472.5L182.5 445.5Z" fill="#277297" stroke="#277297"></path><path d="M67.8 416L145.7 472.5L140.7 403Z" fill="#246688" stroke="#246688"></path><path d="M333.2 0L284.4 0L331.4 68.5Z" fill="#297ea6" stroke="#297ea6"></path><path d="M120.7 89.5L158.7 160L179.5 146Z" fill="#246688" stroke="#246688"></path><path d="M90.8 303L96.8 324.5L178.5 280Z" fill="#15384f" stroke="#15384f"></path><path d="M120.7 364.5L67.8 416L140.7 403Z" fill="#00101c" stroke="#00101c"></path><path d="M90.8 303L178.5 280L132.7 245Z" fill="#246688" stroke="#246688"></path><path d="M87.8 167L101.8 232.5L144.7 195.5Z" fill="#246688" stroke="#246688"></path><path d="M144.7 195.5L101.8 232.5L132.7 245Z" fill="#081a28" stroke="#081a28"></path><path d="M101.8 232.5L90.8 303L132.7 245Z" fill="#297ea6" stroke="#297ea6"></path><path d="M713.5 0L642.6 0L704.5 99Z" fill="#081a28" stroke="#081a28"></path><path d="M704.5 99L642.6 0L673.6 108.5Z" fill="#081a28" stroke="#081a28"></path><path d="M668.6 540L739.5 540L702.5 500.5Z" fill="#297ea6" stroke="#297ea6"></path><path d="M702.5 500.5L809.3 406L712.5 423Z" fill="#246688" stroke="#246688"></path><path d="M739.5 540L809.3 406L702.5 500.5Z" fill="#19435d" stroke="#19435d"></path><path d="M769.5 235L812.3 201.5L767.5 173.5Z" fill="#297ea6" stroke="#297ea6"></path><path d="M853.3 299L812.3 201.5L769.5 235Z" fill="#19435d" stroke="#19435d"></path><path d="M767.5 173.5L748.5 56.5L704.5 99Z" fill="#246688" stroke="#246688"></path><path d="M833.3 98L748.5 56.5L767.5 173.5Z" fill="#0c2435" stroke="#0c2435"></path><path d="M158.7 160L87.8 167L144.7 195.5Z" fill="#297ea6" stroke="#297ea6"></path><path d="M101.8 232.5L0 290L90.8 303Z" fill="#19435d" stroke="#19435d"></path><path d="M209.5 0L179.5 146L259.5 35.5Z" fill="#19435d" stroke="#19435d"></path><path d="M284.4 0L209.5 0L259.5 35.5Z" fill="#205a7a" stroke="#205a7a"></path><path d="M0 337.5L67.8 416L96.8 324.5Z" fill="#0c2435" stroke="#0c2435"></path><path d="M96.8 324.5L67.8 416L120.7 364.5Z" fill="#0c2435" stroke="#0c2435"></path><path d="M145.7 472.5L108.7 540L236.5 540Z" fill="#081a28" stroke="#081a28"></path><path d="M36.8 440.5L67.8 416L0 418Z" fill="#15384f" stroke="#15384f"></path><path d="M209.5 0L120.7 89.5L179.5 146Z" fill="#297ea6" stroke="#297ea6"></path><path d="M854.3 349.5L853.3 299L721.5 306.5Z" fill="#1d4e6b" stroke="#1d4e6b"></path><path d="M863.2 367L854.3 349.5L809.3 406Z" fill="#15384f" stroke="#15384f"></path><path d="M809.3 406L854.3 349.5L721.5 306.5Z" fill="#205a7a" stroke="#205a7a"></path><path d="M748.5 56.5L713.5 0L704.5 99Z" fill="#00101c" stroke="#00101c"></path><path d="M864.2 494.5L863.2 367L809.3 406Z" fill="#19435d" stroke="#19435d"></path><path d="M854.3 349.5L884.2 307.5L853.3 299Z" fill="#112e42" stroke="#112e42"></path><path d="M76.8 540L108.7 540L145.7 472.5Z" fill="#0c2435" stroke="#0c2435"></path><path d="M863.2 367L884.2 307.5L854.3 349.5Z" fill="#205a7a" stroke="#205a7a"></path><path d="M853.3 299L916.2 185.5L812.3 201.5Z" fill="#0c2435" stroke="#0c2435"></path><path d="M812.3 201.5L833.3 98L767.5 173.5Z" fill="#081a28" stroke="#081a28"></path><path d="M739.5 540L837.3 514.5L809.3 406Z" fill="#277297" stroke="#277297"></path><path d="M960 372.5L927.2 291L884.2 307.5Z" fill="#0c2435" stroke="#0c2435"></path><path d="M869.2 108.5L833.3 98L812.3 201.5Z" fill="#1d4e6b" stroke="#1d4e6b"></path><path d="M748.5 56.5L810.3 0L713.5 0Z" fill="#19435d" stroke="#19435d"></path><path d="M0 337.5L96.8 324.5L90.8 303Z" fill="#112e42" stroke="#112e42"></path><path d="M67.8 416L36.8 440.5L145.7 472.5Z" fill="#297ea6" stroke="#297ea6"></path><path d="M833.3 98L813.3 64.5L748.5 56.5Z" fill="#0c2435" stroke="#0c2435"></path><path d="M36.8 440.5L76.8 540L145.7 472.5Z" fill="#081a28" stroke="#081a28"></path><path d="M837.3 514.5L864.2 494.5L809.3 406Z" fill="#297ea6" stroke="#297ea6"></path><path d="M209.5 0L126.7 0L120.7 89.5Z" fill="#1d4e6b" stroke="#1d4e6b"></path><path d="M0 156L0 213.5L87.8 167Z" fill="#205a7a" stroke="#205a7a"></path><path d="M739.5 540L843.3 540L837.3 514.5Z" fill="#1d4e6b" stroke="#1d4e6b"></path><path d="M837.3 514.5L857.2 540L864.2 494.5Z" fill="#15384f" stroke="#15384f"></path><path d="M0 213.5L101.8 232.5L87.8 167Z" fill="#246688" stroke="#246688"></path><path d="M0 213.5L0 290L101.8 232.5Z" fill="#1d4e6b" stroke="#1d4e6b"></path><path d="M0 290L0 337.5L90.8 303Z" fill="#297ea6" stroke="#297ea6"></path><path d="M893.2 138L869.2 108.5L812.3 201.5Z" fill="#246688" stroke="#246688"></path><path d="M833.3 98L869.2 108.5L813.3 64.5Z" fill="#277297" stroke="#277297"></path><path d="M41.8 76.5L87.8 167L120.7 89.5Z" fill="#205a7a" stroke="#205a7a"></path><path d="M843.3 540L857.2 540L837.3 514.5Z" fill="#0c2435" stroke="#0c2435"></path><path d="M0 337.5L0 418L67.8 416Z" fill="#277297" stroke="#277297"></path><path d="M36.8 440.5L0 540L76.8 540Z" fill="#00101c" stroke="#00101c"></path><path d="M916.2 185.5L893.2 138L812.3 201.5Z" fill="#277297" stroke="#277297"></path><path d="M0 418L0 446.5L36.8 440.5Z" fill="#00101c" stroke="#00101c"></path><path d="M849.2 0L813.3 64.5L869.2 108.5Z" fill="#205a7a" stroke="#205a7a"></path><path d="M849.2 0L810.3 0L813.3 64.5Z" fill="#19435d" stroke="#19435d"></path><path d="M813.3 64.5L810.3 0L748.5 56.5Z" fill="#15384f" stroke="#15384f"></path><path d="M89.8 0L41.8 76.5L120.7 89.5Z" fill="#0c2435" stroke="#0c2435"></path><path d="M884.2 307.5L927.2 291L853.3 299Z" fill="#112e42" stroke="#112e42"></path><path d="M960 276L927.2 291L960 372.5Z" fill="#112e42" stroke="#112e42"></path><path d="M884.2 307.5L863.2 367L960 372.5Z" fill="#112e42" stroke="#112e42"></path><path d="M126.7 0L89.8 0L120.7 89.5Z" fill="#246688" stroke="#246688"></path><path d="M41.8 76.5L0 156L87.8 167Z" fill="#205a7a" stroke="#205a7a"></path><path d="M927.2 291L916.2 185.5L853.3 299Z" fill="#112e42" stroke="#112e42"></path><path d="M960 68.5L849.2 0L869.2 108.5Z" fill="#15384f" stroke="#15384f"></path><path d="M960 68.5L869.2 108.5L893.2 138Z" fill="#112e42" stroke="#112e42"></path><path d="M0 446.5L0 540L36.8 440.5Z" fill="#15384f" stroke="#15384f"></path><path d="M927.2 291L960 218.5L916.2 185.5Z" fill="#0c2435" stroke="#0c2435"></path><path d="M916.2 185.5L960 138L893.2 138Z" fill="#00101c" stroke="#00101c"></path><path d="M960 372.5L863.2 367L960 432Z" fill="#00101c" stroke="#00101c"></path><path d="M960 432L863.2 367L864.2 494.5Z" fill="#0c2435" stroke="#0c2435"></path><path d="M960 276L960 218.5L927.2 291Z" fill="#246688" stroke="#246688"></path><path d="M960 493.5L960 432L864.2 494.5Z" fill="#0c2435" stroke="#0c2435"></path><path d="M89.8 0L0 45.5L41.8 76.5Z" fill="#1d4e6b" stroke="#1d4e6b"></path><path d="M41.8 76.5L0 45.5L0 156Z" fill="#0c2435" stroke="#0c2435"></path><path d="M960 218.5L960 138L916.2 185.5Z" fill="#246688" stroke="#246688"></path><path d="M960 540L960 493.5L864.2 494.5Z" fill="#112e42" stroke="#112e42"></path><path d="M89.8 0L0 0L0 45.5Z" fill="#205a7a" stroke="#205a7a"></path><path d="M857.2 540L960 540L864.2 494.5Z" fill="#277297" stroke="#277297"></path><path d="M960 138L960 68.5L893.2 138Z" fill="#0c2435" stroke="#0c2435"></path><path d="M960 68.5L960 0L849.2 0Z" fill="#00101c" stroke="#00101c"></path></g></svg>